<svg width="65" height="33" viewBox="0 0 65 33" fill="none" xmlns="http://www.w3.org/2000/svg">
<path d="M14.1906 33C12.8676 30.2696 11.5607 27.4294 10.2699 24.4793C8.97911 21.5292 7.75287 18.6106 6.59117 15.7233C5.42946 12.8359 4.34843 10.0742 3.34808 7.43795C2.37999 4.80171 1.54098 2.44793 0.831055 0.376606H9.15659C9.80198 2.25963 10.4958 4.29957 11.238 6.49643C12.0124 8.66191 12.7869 10.8274 13.5614 12.9929C14.3681 15.1583 15.1426 17.2297 15.8848 19.2068C16.627 21.184 17.3208 22.8944 17.9662 24.3381C18.5793 22.8944 19.257 21.184 19.9992 19.2068C20.7736 17.2297 21.5481 15.1583 22.3226 12.9929C23.1293 10.8274 23.9038 8.66191 24.646 6.49643C25.4204 4.29957 26.1304 2.25963 26.7758 0.376606H34.8109C34.0687 2.44793 33.2135 4.80171 32.2454 7.43795C31.2774 10.0742 30.2125 12.8359 29.0508 15.7233C27.8891 18.6106 26.6628 21.5292 25.372 24.4793C24.0813 27.4294 22.7743 30.2696 21.4513 33H14.1906ZM49.2199 0C54.2215 0 58.0616 0.863054 60.7399 2.58916C63.4183 4.28388 64.7575 7.07703 64.7575 10.9686C64.7575 14.8916 63.4022 17.7318 60.6915 19.4893C57.9809 21.2154 54.1085 22.0785 49.0746 22.0785H46.7028V33H39.1518V0.847362C40.7975 0.533525 42.5401 0.313839 44.3794 0.188304C46.2188 0.0627675 47.8323 0 49.2199 0ZM49.7039 6.26106C49.1553 6.26106 48.6067 6.27675 48.0581 6.30813C47.5418 6.33952 47.0901 6.3709 46.7028 6.40228V15.8174H49.0746C51.6883 15.8174 53.6568 15.4722 54.9798 14.7817C56.3029 14.0913 56.9644 12.8046 56.9644 10.9215C56.9644 10.0114 56.7869 9.2582 56.432 8.66191C56.1093 8.06562 55.6252 7.59487 54.9798 7.24964C54.3667 6.87304 53.6084 6.62197 52.7048 6.49643C51.8013 6.33952 50.8009 6.26106 49.7039 6.26106Z" fill="white"/>
</svg>
